<svg width="16" height="16" viewBox="0 0 16 16" fill="none" xmlns="http://www.w3.org/2000/svg">
<path d="M9.17506 7.99997L15.2501 1.92497C15.3866 1.76556 15.4579 1.56049 15.4498 1.35076C15.4417 1.14103 15.3548 0.942083 15.2064 0.793671C15.058 0.645259 14.859 0.558315 14.6493 0.550214C14.4395 0.542113 14.2345 0.613452 14.0751 0.749974L8.00006 6.82497L1.92506 0.74164C1.76564 0.605118 1.56058 0.53378 1.35085 0.541881C1.14112 0.549982 0.942169 0.636925 0.793757 0.785338C0.645345 0.93375 0.558401 1.1327 0.5503 1.34243C0.542199 1.55216 0.613538 1.75722 0.75006 1.91664L6.82506 7.99997L0.741726 14.075C0.654491 14.1497 0.583641 14.2416 0.533622 14.345C0.483602 14.4484 0.455493 14.561 0.45106 14.6758C0.446628 14.7905 0.465966 14.905 0.507861 15.0119C0.549757 15.1188 0.613305 15.216 0.694518 15.2972C0.77573 15.3784 0.872853 15.4419 0.97979 15.4838C1.08673 15.5257 1.20117 15.5451 1.31594 15.5406C1.4307 15.5362 1.54331 15.5081 1.6467 15.4581C1.75009 15.4081 1.84202 15.3372 1.91673 15.25L8.00006 9.17497L14.0751 15.25C14.2345 15.3865 14.4395 15.4578 14.6493 15.4497C14.859 15.4416 15.058 15.3547 15.2064 15.2063C15.3548 15.0579 15.4417 14.8589 15.4498 14.6492C15.4579 14.4395 15.3866 14.2344 15.2501 14.075L9.17506 7.99997Z" fill="#110D10"/>
</svg>
