<svg width="28" height="28" viewBox="0 0 28 28" fill="none" xmlns="http://www.w3.org/2000/svg">
<path d="M14 9.57401C11.5629 9.57401 9.57404 11.5629 9.57404 14C9.57404 16.4371 11.5629 18.426 14 18.426C16.4371 18.426 18.426 16.4371 18.426 14C18.426 11.5629 16.4371 9.57401 14 9.57401ZM27.2746 14C27.2746 12.1672 27.2912 10.351 27.1883 8.52147C27.0854 6.39647 26.6006 4.51053 25.0467 2.95662C23.4895 1.3994 21.6069 0.917952 19.4819 0.815023C17.649 0.712093 15.8328 0.728695 14.0033 0.728695C12.1705 0.728695 10.3543 0.712093 8.52483 0.815023C6.39983 0.917952 4.51389 1.40272 2.95998 2.95662C1.40275 4.51385 0.921309 6.39647 0.81838 8.52147C0.71545 10.3543 0.732051 12.1705 0.732051 14C0.732051 15.8295 0.71545 17.649 0.81838 19.4785C0.921309 21.6035 1.40608 23.4894 2.95998 25.0433C4.51721 26.6006 6.39983 27.082 8.52483 27.1849C10.3576 27.2879 12.1738 27.2713 14.0033 27.2713C15.8362 27.2713 17.6524 27.2879 19.4819 27.1849C21.6069 27.082 23.4928 26.5972 25.0467 25.0433C26.6039 23.4861 27.0854 21.6035 27.1883 19.4785C27.2946 17.649 27.2746 15.8328 27.2746 14ZM14 20.8099C10.2315 20.8099 7.19006 17.7685 7.19006 14C7.19006 10.2314 10.2315 7.19002 14 7.19002C17.7686 7.19002 20.81 10.2314 20.81 14C20.81 17.7685 17.7686 20.8099 14 20.8099ZM21.0889 8.50155C20.209 8.50155 19.4985 7.791 19.4985 6.91112C19.4985 6.03123 20.209 5.32069 21.0889 5.32069C21.9688 5.32069 22.6793 6.03123 22.6793 6.91112C22.6796 7.12005 22.6386 7.32698 22.5588 7.52006C22.479 7.71314 22.3618 7.88857 22.2141 8.0363C22.0663 8.18404 21.8909 8.30118 21.6978 8.38102C21.5048 8.46085 21.2978 8.50181 21.0889 8.50155Z" fill="#fff"/>
</svg>
