<svg width="14" height="14" viewBox="0 0 14 14" fill="none"  xmlns="http://www.w3.org/2000/svg">
<path fill-rule="evenodd" clip-rule="evenodd" d="M1.018 4.75L1 4.69825C0.595 3.538 0.25 1.9525 0.25 1C0.25 0.5875 0.5875 0.25 1 0.25H3.25C3.64782 0.25 4.02936 0.408035 4.31066 0.68934C4.59196 0.970644 4.75 1.35218 4.75 1.75V3.25C4.75 3.64782 4.59196 4.02936 4.31066 4.31066C4.02936 4.59196 3.64782 4.75 3.25 4.75H2.62225C3.22778 6.24173 4.12632 7.59688 5.26472 8.73528C6.40312 9.87368 7.75827 10.7722 9.25 11.3778V10.75C9.25 10.3522 9.40804 9.97064 9.68934 9.68934C9.97064 9.40804 10.3522 9.25 10.75 9.25H12.25C12.6478 9.25 13.0294 9.40804 13.3107 9.68934C13.592 9.97064 13.75 10.3522 13.75 10.75V13C13.75 13.3375 13.3375 13.75 13 13.75C11.7063 13.75 10.42 13.408 9.25 13C5.4145 11.626 2.374 8.5855 1.018 4.75Z" fill-opacity="0.26" fill="#fff"/>
</svg>
