<svg width="25" height="22" viewBox="0 0 25 22" fill="none" xmlns="http://www.w3.org/2000/svg">
<circle cx="10" cy="20" r="2" fill="white"/>
<circle cx="20" cy="20" r="2" fill="white"/>
<path d="M11 4C10.4477 4 10 4.44772 10 5C10 5.55228 10.4477 6 11 6V4ZM24 5L24.9806 5.19612C25.0393 4.90234 24.9633 4.5977 24.7733 4.36601C24.5834 4.13432 24.2996 4 24 4V5ZM21.0194 14.8039C20.9111 15.3454 21.2623 15.8723 21.8039 15.9806C22.3454 16.0889 22.8723 15.7377 22.9806 15.1961L21.0194 14.8039ZM11 6H24V4H11V6ZM23.0194 4.80388L21.0194 14.8039L22.9806 15.1961L24.9806 5.19612L23.0194 4.80388Z" fill="white"/>
<path d="M1 1H5.06452L8.45161 15H22" stroke="white" stroke-width="2" stroke-linecap="round" stroke-linejoin="round"/>
</svg>
