<svg width="191" height="55" viewBox="0 0 191 55" fill="none" xmlns="http://www.w3.org/2000/svg">
<path fill-rule="evenodd" clip-rule="evenodd" d="M47.7213 32.7299C48.5711 32.6557 49.4079 32.4708 50.2105 32.1799C51.1073 31.7971 51.5557 31.2021 51.5557 30.3948C51.5557 29.4106 51.2126 28.7303 50.5265 28.354C49.5768 27.9267 48.5394 27.7348 47.5011 27.7943C46.0076 27.7943 44.9512 28.161 44.3321 28.8943C43.848 29.537 43.5423 30.298 43.4465 31.0992H37.4245C37.4727 29.2319 38.0856 27.424 39.1814 25.9176C40.8345 23.8012 43.6763 22.743 47.7069 22.743C50.1256 22.698 52.5201 23.2356 54.6911 24.311C56.7272 25.3563 57.7452 27.3264 57.7452 30.2211V41.2452C57.7452 42.0075 57.7596 42.9338 57.7883 44.0242C57.7721 44.6049 57.9005 45.1804 58.1617 45.6983C58.398 46.0195 58.7154 46.271 59.0808 46.4268V47.3531H52.3024C52.1257 46.9127 51.9942 46.4552 51.9099 45.9878C51.8365 45.56 51.7775 45.0775 51.7328 44.5404C50.8607 45.4906 49.8522 46.3037 48.7409 46.9527C47.345 47.7434 45.7657 48.1463 44.1646 48.1202C42.1974 48.1908 40.2749 47.518 38.7745 46.2338C37.3575 44.9923 36.649 43.2329 36.649 40.9557C36.649 38.0031 37.7883 35.8642 40.0669 34.5391C41.3147 33.8186 43.1514 33.304 45.5767 32.9952L47.7117 32.7299H47.7213ZM51.5509 35.6632C51.1693 35.9048 50.7653 36.1084 50.3446 36.2711C49.799 36.4612 49.2386 36.6049 48.6691 36.7005L47.233 36.9658C46.236 37.0942 45.2661 37.3842 44.3609 37.8246C43.8905 38.084 43.5026 38.4721 43.2417 38.9442C42.9808 39.4162 42.8577 39.953 42.8865 40.4926C42.8865 41.5668 43.1865 42.342 43.7864 42.818C44.4121 43.3032 45.185 43.5554 45.9741 43.5321C47.3202 43.5358 48.6346 43.1196 49.7366 42.3404C50.8855 41.5459 51.4823 40.0986 51.5269 37.9983L51.5509 35.6632Z" fill="#110D10"/>
<path fill-rule="evenodd" clip-rule="evenodd" d="M75.9549 22.7526L76.491 22.7864V29.2224C76.0985 29.1789 75.749 29.15 75.4427 29.1355C75.1363 29.1211 74.8874 29.1355 74.7007 29.1355C72.1923 29.1355 70.5073 29.9589 69.6456 31.6057C69.1638 32.532 68.9228 33.9569 68.9228 35.8803V47.3675H62.6471V23.3171H68.5973V27.5C69.2594 26.2791 70.1074 25.1704 71.1105 24.2145C72.4027 23.1872 74.0187 22.6631 75.6629 22.7382L75.9549 22.7526Z" fill="#110D10"/>
<path fill-rule="evenodd" clip-rule="evenodd" d="M93.5086 31.9386C93.3996 31.0747 93.0914 30.2486 92.6086 29.5263C91.9065 28.5614 90.8167 28.0789 89.3391 28.0789C87.2329 28.0789 85.7968 29.1291 85.0309 31.2294C84.5742 32.6639 84.367 34.1671 84.4181 35.6728C84.3683 37.1136 84.5758 38.5516 85.0309 39.9184C85.7745 41.9158 87.1786 42.9145 89.2434 42.9145C90.705 42.9145 91.7422 42.5172 92.3549 41.7228C93.0101 40.8208 93.3984 39.7503 93.4751 38.6351H99.8418C99.6743 40.6016 98.961 42.4809 97.7833 44.0579C95.8271 46.8047 92.9294 48.1781 89.0902 48.1781C85.2511 48.1781 82.4268 47.0314 80.6173 44.7382C78.8078 42.4449 77.9031 39.4729 77.9031 35.8224C77.9031 31.699 78.902 28.4922 80.8997 26.2022C82.8975 23.9121 85.6564 22.7655 89.1764 22.7623C92.1666 22.7623 94.6144 23.4377 96.5196 24.7886C98.4248 26.1395 99.5529 28.5276 99.904 31.9531L93.5086 31.9386Z" fill="#110D10"/>
<path fill-rule="evenodd" clip-rule="evenodd" d="M123.753 44.386C121.739 46.8883 118.683 48.1395 114.586 48.1395C110.488 48.1395 107.434 46.8883 105.423 44.386C103.466 41.7913 102.405 38.6214 102.405 35.3616C102.405 32.1019 103.466 28.9319 105.423 26.3373C107.437 23.7963 110.493 22.5259 114.59 22.5259C118.688 22.5259 121.744 23.7963 123.757 26.3373C125.715 28.9319 126.775 32.1019 126.775 35.3616C126.775 38.6214 125.715 41.7913 123.757 44.386H123.753ZM118.765 40.9123C119.741 39.6064 120.229 37.7506 120.229 35.3447C120.229 32.9389 119.741 31.0863 118.765 29.7868C118.245 29.1754 117.6 28.6846 116.874 28.3481C116.148 28.0116 115.358 27.8373 114.559 27.8373C113.76 27.8373 112.971 28.0116 112.245 28.3481C111.519 28.6846 110.874 29.1754 110.354 29.7868C109.368 31.0734 108.876 32.926 108.88 35.3447C108.883 37.7635 109.374 39.6193 110.354 40.9123C110.872 41.5266 111.517 42.0201 112.243 42.3585C112.969 42.6969 113.759 42.8722 114.559 42.8722C115.359 42.8722 116.15 42.6969 116.876 42.3585C117.602 42.0201 118.247 41.5266 118.765 40.9123Z" fill="#110D10"/>
<path fill-rule="evenodd" clip-rule="evenodd" d="M177.625 23.8044C179.307 24.5703 180.737 25.8038 181.747 27.3601C182.753 28.8477 183.408 30.5475 183.662 32.3294C183.853 33.9121 183.922 35.5074 183.867 37.1009H166.486C166.582 39.5099 167.413 41.2002 168.98 42.1715C170.017 42.7962 171.209 43.1093 172.417 43.0737C173.391 43.1509 174.366 42.9291 175.213 42.4374C176.059 41.9456 176.739 41.2071 177.161 40.3189H183.528C183.362 41.7469 182.591 43.1943 181.215 44.661C179.08 46.9993 176.09 48.1684 172.245 48.1684C169.188 48.2081 166.215 47.161 163.848 45.211C161.423 43.2393 160.21 40.0326 160.21 35.5908C160.21 31.4288 161.305 28.2366 163.494 26.0141C165.683 23.7915 168.524 22.6787 172.015 22.6754C173.941 22.645 175.852 23.0282 177.62 23.7996L177.625 23.8044ZM168.3 29.232C167.366 30.2613 166.784 31.5648 166.639 32.9518H177.381C177.269 31.2825 176.716 30.0168 175.72 29.1548C174.689 28.277 173.373 27.8147 172.024 27.857C170.419 27.857 169.176 28.3154 168.295 29.232H168.3Z" fill="#110D10"/>
<path d="M12.7094 6.19952H6.96509V47.3434H12.7094V6.19952Z" fill="#110D10"/>
<path d="M23.0252 23.3412H17.2809V47.3483H23.0252V23.3412Z" fill="#110D10"/>
<path fill-rule="evenodd" clip-rule="evenodd" d="M31.5604 26.207C30.5441 24.8813 29.1644 23.885 27.592 23.3412V47.4255C29.2111 46.8239 30.6079 45.736 31.5939 44.3088C33.3524 41.8547 34.2316 38.7605 34.2316 35.0263C34.2379 31.424 33.3476 28.4842 31.5604 26.207Z" fill="#110D10"/>
<path fill-rule="evenodd" clip-rule="evenodd" d="M135.131 23.5439C133.764 24.1498 132.565 25.0861 131.642 26.2698C129.768 28.6209 128.832 31.847 128.832 35.9478C128.832 39.5052 129.789 42.4192 131.704 44.6899C132.634 45.8335 133.813 46.745 135.15 47.3531L135.131 23.5439Z" fill="#110D10"/>
<path d="M157.022 6.19952H151.01V47.3434H157.022V6.19952Z" fill="#110D10"/>
<path d="M146.17 23.3123H140.158V47.3965H146.17V23.3123Z" fill="#110D10"/>
<path d="M21.8669 6.45526C23.9827 6.45526 26.089 7.0728 26.089 9.91446C26.089 12.1579 24.5285 13.1855 22.4509 13.1855H20.584V16.1961H17.64V6.45526H21.8669ZM20.584 10.9132H22.0201C22.7381 10.9132 23.2408 10.6816 23.2408 9.88552C23.2408 9.18596 22.8339 8.84341 21.9674 8.84341H20.584V10.9132Z" fill="#110D10"/>
<path d="M35.7682 8.81929H30.6797V10.0351H35.2943V12.293H30.6797V13.7162H35.9023V16.1912H27.7644V6.45526H35.773L35.7682 8.81929Z" fill="#110D10"/>
<path d="M42.3216 16.4035C39.3632 16.4035 37.4772 14.1601 37.4772 11.275C37.4772 8.38994 39.4446 6.18512 42.3742 6.18512C44.7342 6.18512 46.6203 7.83994 46.7591 10.0448H43.8869C43.8493 9.65924 43.6666 9.30288 43.3764 9.04894C43.0861 8.79499 42.7104 8.66275 42.3264 8.67941C40.9286 8.67941 40.469 10.0882 40.469 11.2943C40.469 12.9057 41.1727 13.9092 42.3264 13.9092C43.1928 13.9092 43.7385 13.3641 43.8869 12.3509H46.807C46.6251 15.043 44.6672 16.4035 42.3216 16.4035Z" fill="#110D10"/>
<path d="M56.5628 8.95921H53.8486V16.1961H50.8903V8.95921H48.1904V6.45526H56.5628V8.95921Z" fill="#110D10"/>
<path d="M67.7021 11.3232C67.7021 14.3723 65.7491 16.4276 62.8434 16.4276C59.9377 16.4276 57.9224 14.3868 57.9224 11.3087C57.9224 8.23067 59.8898 6.1947 62.8912 6.1947C65.7634 6.1947 67.7021 8.25962 67.7021 11.3232ZM60.9142 11.2701C60.9142 13.007 61.6179 14.0057 62.829 14.0057C64.0401 14.0057 64.6863 13.0408 64.6863 11.1881C64.6863 9.56225 63.9922 8.58768 62.8146 8.58768C61.637 8.58768 60.9142 9.60084 60.9142 11.2701Z" fill="#110D10"/>
<path d="M73.8103 6.45526C75.9261 6.45526 78.0324 7.0728 78.0324 9.91446C78.0324 12.1579 76.4718 13.1855 74.3943 13.1855H72.5465V16.1961H69.6025V6.45526H73.8103ZM72.5465 10.9132H73.9826C74.7007 10.9132 75.2033 10.6816 75.2033 9.88552C75.2033 9.18596 74.7964 8.84341 73.9252 8.84341H72.5561L72.5465 10.9132Z" fill="#110D10"/>
<path d="M88.31 16.1912H85.3086L84.8299 14.8114H81.7232L81.2445 16.1912H78.243L81.8141 6.45044H84.7294L88.31 16.1912ZM83.6667 11.0482C83.5151 10.5639 83.392 10.0709 83.2981 9.57193C83.1353 10.2425 83.0827 10.4596 82.8912 11.0627C82.8912 11.0627 82.6853 11.7333 82.3598 12.7175H84.1789C84.0065 12.1579 83.6667 11.0482 83.6667 11.0482Z" fill="#110D10"/>
<path d="M98.4823 16.1912H95.5239V12.3316H92.7283V16.1912H89.7556V6.45526H92.7283V9.72631H95.5239V6.45526H98.4823V16.1912Z" fill="#110D10"/>
<path d="M120.34 10.0254H122.513C124.102 10.0254 126.218 10.614 126.218 12.9925C126.218 15.371 124.643 16.1912 122.077 16.1912H117.463V6.45526H125.457V8.73727H120.34V10.0254ZM120.34 12.1338V13.9237H122.01C122.728 13.9237 123.341 13.7886 123.341 13.0215C123.341 12.2544 122.728 12.1338 121.795 12.1338H120.34Z" fill="#110D10"/>
<path d="M137.166 16.1912H134.164L133.686 14.8114H130.579L130.1 16.1912H127.099L130.684 6.45526H133.614L137.166 16.1912ZM132.522 11.0482C132.373 10.5637 132.251 10.0708 132.159 9.57192C131.996 10.2425 131.943 10.4596 131.752 11.0627C131.752 11.0627 131.546 11.7333 131.22 12.7175H133.039C132.862 12.1579 132.522 11.0482 132.522 11.0482Z" fill="#110D10"/>
<path d="M142.819 6.45526C144.935 6.45526 147.041 7.0728 147.041 9.91446C147.041 12.1579 145.481 13.1855 143.403 13.1855H141.555V16.1961H138.611V6.45526H142.819ZM141.555 10.9132H142.992C143.71 10.9132 144.212 10.6816 144.212 9.88552C144.212 9.18596 143.805 8.84341 142.934 8.84341H141.565L141.555 10.9132Z" fill="#110D10"/>
<path d="M109.382 9.46094H106.323V12.5438H109.382V9.46094Z" fill="#110D10"/>
</svg>
