<svg width="121" height="121" viewBox="0 0 121 121" fill="none" xmlns="http://www.w3.org/2000/svg">
<path d="M60.5 121C93.9132 121 121 93.9132 121 60.5C121 27.0868 93.9132 0 60.5 0C27.0868 0 0 27.0868 0 60.5C0 93.9132 27.0868 121 60.5 121Z" fill="#110D10"/>
<path fill-rule="evenodd" clip-rule="evenodd" d="M46.5516 41.171C47.5627 39.0838 49.5081 38.6344 51.5125 38.5102C55.5037 38.2619 59.5066 37.9662 63.4978 37.9722C66.1415 37.9995 68.7759 38.2907 71.3619 38.8413C72.5444 39.0897 73.6087 40.1481 74.9095 40.964C77.6294 39.7342 78.9539 37.1621 79.0485 34.0283C79.149 31.1192 78.8416 28.1983 78.7174 25.3365C80.8165 25.573 83.4477 31.1842 83.9621 34.2057C84.6007 37.984 83.7492 41.4785 82.3183 45.103C83.6901 44.3994 85.0678 43.7135 86.4573 42.9862C87.3679 42.5014 88.2311 41.9337 89.1535 41.4666C90.0214 40.9929 90.9858 40.7232 91.9735 40.6781C92.9612 40.6331 93.9461 40.8137 94.8535 41.2065C99.6724 43.1459 104.556 44.9434 109.476 46.8177C107.933 50.6019 105.189 53.1385 101.961 55.1726C99.4773 56.7395 96.7929 58.129 93.7774 57.9457C91.3766 57.7493 89.0005 57.3216 86.682 56.6685C84.8117 56.0915 82.9723 55.4185 81.1712 54.6522C82.7972 56.8577 82.543 58.8976 81.5792 61.0381C79.9887 64.5858 78.3094 68.0566 77.0204 71.6812C75.7314 75.3057 75.5304 79.0367 77.2628 82.6908C79.3382 87.0663 77.7891 91.8202 72.7809 93.399C72.1996 93.5739 71.665 93.8773 71.2167 94.2867C70.7685 94.6961 70.4179 95.201 70.1911 95.7641C69.8215 96.5418 69.195 97.1683 68.4173 97.5379C63.3368 99.5907 57.6621 99.614 52.565 97.603C52.066 97.4646 51.6145 97.1918 51.26 96.8143C50.9055 96.4369 50.6615 95.9692 50.5546 95.4625C50.2531 94.1144 49.0055 93.6887 47.8466 93.2807C46.6296 92.9265 45.531 92.2499 44.6671 91.3225C43.8032 90.3951 43.2061 89.2514 42.9389 88.0124C42.5181 86.3835 42.7073 84.657 43.4711 83.158C45.5346 79.0604 45.168 74.9273 43.6366 70.8593C42.3535 67.4594 40.7571 64.1837 39.273 60.8607C38.3506 58.8089 38.2087 56.8104 39.746 54.6463L34.8265 56.5502C30.2086 58.3241 25.6262 58.7262 21.0615 56.3137C16.9225 54.1378 13.5108 51.3233 11.5063 46.8946C14.9831 45.5228 18.3948 44.1629 21.8183 42.8325C23.2847 42.2412 24.8161 41.8451 26.247 41.1946C28.5648 40.1363 30.6048 40.7807 32.6447 41.9337C34.59 43.0394 36.5708 44.0742 38.6758 45.0262C37.3631 41.4785 36.2574 38.0727 37.0379 34.3062C37.7948 30.6462 39.202 27.4296 42.5723 25.2655C42.3476 26.4481 42.0756 27.6306 41.916 28.8546C41.5553 31.5981 41.5376 34.318 42.5073 36.9729C42.8261 37.9297 43.3548 38.8032 44.0545 39.5295C44.7542 40.2558 45.6074 40.8167 46.5516 41.171Z" fill="white"/>
<path fill-rule="evenodd" clip-rule="evenodd" d="M59.4179 44.7128H60.7483L60.0151 47.1548H61.2391L61.9782 44.7128H63.3027L62.5695 47.1548H64.1955L63.9117 48.1836H62.2857L61.8304 49.6677H63.5687L63.2672 50.7143H61.5229L60.7897 53.1326H59.4652L60.1925 50.7143H58.9863L58.2413 53.1326H56.9168L57.65 50.7143H56.1127L56.4083 49.6677H57.9456L58.4187 48.1659H56.7631L57.0469 47.137H58.7025L59.4357 44.695L59.4179 44.7128ZM59.7254 48.2132L59.2583 49.715H60.4822L60.9553 48.2132H59.7254Z" fill="#050205"/>
<path fill-rule="evenodd" clip-rule="evenodd" d="M52.766 60.6951C53.1057 60.8953 53.391 61.1757 53.5972 61.5118C53.8033 61.8478 53.924 62.2292 53.9486 62.6227C53.8737 64.1995 53.0242 65.041 51.4002 65.1475H46.6699V56.7158H51.14C52.5591 56.7986 53.3081 57.6244 53.3869 59.1933C53.4141 59.4725 53.3748 59.7543 53.272 60.0153C53.1692 60.2764 53.0059 60.5094 52.7956 60.6951H52.766ZM48.3433 60.1038H50.7084C50.85 60.1189 50.9932 60.1019 51.1275 60.0543C51.2617 60.0066 51.3835 59.9294 51.4839 59.8284C51.5844 59.7274 51.6608 59.6052 51.7077 59.4707C51.7547 59.3362 51.7708 59.1929 51.7549 59.0514C51.7549 58.6572 51.412 58.4404 50.7261 58.4009H48.361V60.1038H48.3433ZM48.3433 63.8348H51.0986C51.2627 63.8528 51.4287 63.8335 51.5843 63.7786C51.7399 63.7236 51.8812 63.6343 51.9976 63.5173C52.114 63.4003 52.2026 63.2586 52.2568 63.1027C52.3111 62.9469 52.3295 62.7808 52.3108 62.6168C52.3108 62.0767 51.9166 61.7949 51.1282 61.7713H48.3433V63.8348Z" fill="#050205"/>
<path fill-rule="evenodd" clip-rule="evenodd" d="M55.9471 65.1416L59.3175 56.7158H61.0026L64.367 65.1357H62.5932L62.0847 63.8585H58.2531L57.7446 65.1534L55.9471 65.1416ZM60.2044 58.9627L58.9213 62.1674H61.452L60.2044 58.9627Z" fill="#050205"/>
<path fill-rule="evenodd" clip-rule="evenodd" d="M71.8171 61.4934L73.9162 65.1652H71.9827L69.9664 61.6826H68.4291V65.1652H66.7439V56.7099H70.4158C72.3867 56.7099 73.3722 57.518 73.3722 59.1341C73.4264 59.6415 73.3011 60.1518 73.0181 60.5763C72.7351 61.0009 72.3122 61.3128 71.823 61.4579L71.8171 61.4934ZM68.4291 60.1098H70.7942C71.4722 60.1098 71.821 59.8003 71.8408 59.1814C71.8605 58.5626 71.5175 58.2748 70.8119 58.3182H68.4468L68.4291 60.1098Z" fill="#050205"/>
<path fill-rule="evenodd" clip-rule="evenodd" d="M52.2753 75.9384C51.6768 75.349 51.268 74.5943 51.1013 73.771C50.9346 72.9478 51.0177 72.0935 51.3398 71.3177C51.6619 70.542 52.2084 69.8802 52.9092 69.4171C53.61 68.954 54.4332 68.7109 55.2731 68.7188C56.4098 68.6938 57.5149 69.0945 58.3714 69.8423L57.248 71.0721C56.6869 70.6267 55.9894 70.3886 55.2731 70.3981C54.9384 70.3804 54.6037 70.433 54.2905 70.5525C53.9774 70.672 53.6927 70.8557 53.4549 71.0919C53.2171 71.328 53.0313 71.6114 52.9096 71.9237C52.7879 72.236 52.733 72.5703 52.7483 72.9051C52.7336 73.247 52.7883 73.5883 52.9093 73.9085C53.0302 74.2286 53.2148 74.5209 53.4519 74.7676C53.6948 75.0009 53.9824 75.1825 54.2975 75.3014C54.6126 75.4204 54.9485 75.4741 55.2849 75.4594C55.9976 75.4753 56.6929 75.2386 57.248 74.7913L58.3714 76.0212C57.5155 76.7699 56.41 77.1707 55.2731 77.1446C54.7178 77.1569 54.1657 77.0563 53.6504 76.849C53.1352 76.6416 52.6673 76.3318 52.2753 75.9384Z" fill="#050205"/>
<path fill-rule="evenodd" clip-rule="evenodd" d="M61.6234 75.9384C60.8898 75.2465 60.42 74.3207 60.2947 73.3201C60.1695 72.3195 60.3965 71.3065 60.937 70.4551C61.4774 69.6038 62.2975 68.9671 63.2562 68.6546C64.215 68.3422 65.2527 68.3733 66.191 68.7427C67.1293 69.1121 67.9097 69.7968 68.3981 70.679C68.8865 71.5613 69.0525 72.5861 68.8674 73.5774C68.6824 74.5687 68.158 75.4646 67.3842 76.1112C66.6104 76.7579 65.6355 77.1149 64.6271 77.1209C64.0724 77.1385 63.5198 77.0427 63.0033 76.8394C62.4869 76.636 62.0173 76.3295 61.6234 75.9384ZM64.633 75.5777C64.9732 75.59 65.312 75.5288 65.6263 75.3982C65.9406 75.2675 66.223 75.0706 66.4542 74.8209C66.9076 74.2982 67.1573 73.6296 67.1573 72.9376C67.1573 72.2457 66.9076 71.577 66.4542 71.0544C66.2147 70.8138 65.9299 70.6228 65.6164 70.4925C65.3029 70.3622 64.9667 70.2952 64.6271 70.2952C64.2876 70.2952 63.9514 70.3622 63.6379 70.4925C63.3243 70.6228 63.0396 70.8138 62.8001 71.0544C62.3466 71.577 62.097 72.2457 62.097 72.9376C62.097 73.6296 62.3466 74.2982 62.8001 74.8209C63.0326 75.0722 63.3169 75.27 63.6334 75.4007C63.9499 75.5313 64.2909 75.5917 64.633 75.5777Z" fill="#050205"/>
<path fill-rule="evenodd" clip-rule="evenodd" d="M51.7727 89.1536V80.7219H55.0188C57.6402 80.7219 58.9509 82.1291 58.9509 84.9436C58.9509 87.7581 57.6402 89.1634 55.0188 89.1595L51.7727 89.1536ZM55.0188 87.4743C56.5128 87.4743 57.2618 86.6288 57.2657 84.9377C57.2697 83.2466 56.5207 82.4031 55.0188 82.407H53.4579V87.4684L55.0188 87.4743Z" fill="#050205"/>
<path fill-rule="evenodd" clip-rule="evenodd" d="M61.9132 89.1535V80.7337L68.1039 80.7278V82.3006H63.5984V84.0981H66.9746V85.665H63.5984V87.5807H68.098V89.1535H61.9132Z" fill="#050205"/>
</svg>
