<svg width="70" height="87" viewBox="0 0 70 87" fill="none" xmlns="http://www.w3.org/2000/svg">
<path d="M34.667 0C15.5527 0 0.000352927 15.5523 0.000352927 34.645C-0.125314 62.5733 33.3497 85.7307 34.667 86.6667C34.667 86.6667 69.4594 62.5733 69.3337 34.6667C69.3337 15.5523 53.7813 0 34.667 0Z" fill="black"/>
<path fill-rule="evenodd" clip-rule="evenodd" d="M28.0972 27.3249C28.5617 26.3636 29.4552 26.1567 30.3759 26.0995C32.2091 25.9851 34.0478 25.849 35.881 25.8517C37.0954 25.8643 38.3054 25.9984 39.4932 26.252C40.0364 26.3664 40.5253 26.8538 41.1228 27.2295C42.3721 26.6632 42.9804 25.4787 43.0239 24.0355C43.0701 22.6958 42.9288 21.3506 42.8718 20.0327C43.836 20.1416 45.0445 22.7257 45.2808 24.1172C45.5741 25.8572 45.1831 27.4664 44.5258 29.1356C45.1559 28.8116 45.7887 28.4957 46.4269 28.1608C46.8452 27.9375 47.2417 27.6761 47.6654 27.461C48.064 27.2428 48.507 27.1186 48.9607 27.0979C49.4143 27.0771 49.8668 27.1603 50.2835 27.3412C52.497 28.2343 54.7404 29.0621 57 29.9253C56.2911 31.668 55.031 32.8362 53.5481 33.7729C52.4074 34.4945 51.1744 35.1344 49.7892 35.05C48.6865 34.9595 47.5951 34.7626 46.5301 34.4618C45.6711 34.1961 44.8262 33.8862 43.9989 33.5333C44.7458 34.549 44.629 35.4884 44.1863 36.4741C43.4557 38.1079 42.6844 39.7063 42.0923 41.3755C41.5003 43.0447 41.4079 44.7629 42.2037 46.4457C43.157 48.4607 42.4454 50.65 40.145 51.3771C39.878 51.4576 39.6325 51.5973 39.4266 51.7859C39.2206 51.9744 39.0596 52.2069 38.9555 52.4663C38.7857 52.8244 38.4979 53.1129 38.1407 53.2831C35.8071 54.2285 33.2005 54.2392 30.8593 53.3131C30.6301 53.2494 30.4227 53.1237 30.2599 52.9499C30.0971 52.7761 29.985 52.5607 29.9359 52.3274C29.7974 51.7065 29.2243 51.5105 28.692 51.3226C28.133 51.1595 27.6284 50.8479 27.2316 50.4208C26.8348 49.9937 26.5605 49.467 26.4378 48.8964C26.2445 48.1463 26.3314 47.3512 26.6822 46.6608C27.6301 44.7738 27.4617 42.8704 26.7583 40.997C26.1689 39.4313 25.4356 37.9227 24.7539 36.3924C24.3303 35.4475 24.2651 34.5272 24.9712 33.5306L22.7116 34.4074C20.5904 35.2243 18.4856 35.4094 16.3889 34.2984C14.4878 33.2964 12.9207 32.0002 12 29.9607C13.597 29.329 15.164 28.7027 16.7366 28.09C17.4101 27.8177 18.1135 27.6353 18.7708 27.3357C19.8354 26.8483 20.7724 27.1451 21.7094 27.6761C22.6029 28.1853 23.5128 28.6618 24.4796 29.1002C23.8767 27.4664 23.3688 25.898 23.7273 24.1635C24.075 22.4779 24.7213 20.9966 26.2694 20C26.1662 20.5446 26.0413 21.0892 25.968 21.6529C25.8023 22.9163 25.7941 24.1689 26.2395 25.3915C26.386 25.8322 26.6288 26.2344 26.9502 26.5689C27.2716 26.9034 27.6635 27.1617 28.0972 27.3249Z" fill="white"/>
</svg>
