<svg width="35" height="34" viewBox="0 0 35 34" fill="none" xmlns="http://www.w3.org/2000/svg">
<g clip-path="url(#clip0)">
<path d="M35 10.2153H30.0492C26.6192 7.9475 22.4228 6.8 17.5 6.8C12.5773 6.8 8.379 7.9475 4.95075 10.2153H0C0.749 10.9293 1.44725 12.4933 1.73775 13.6833C0.615684 15.1344 0.00617232 16.8987 0 18.7136C0 23.4005 3.92525 27.2136 8.75 27.2136C10.9815 27.2098 13.1261 26.3729 14.7403 24.8761L17.5 28.9L20.2598 24.8778C21.8736 26.3752 24.0183 27.2127 26.25 27.217C31.0747 27.217 35 23.4039 35 18.717C35 16.8266 34.3402 15.096 33.2622 13.685C33.5527 12.495 34.251 10.931 35 10.217V10.2153ZM8.75 24.4953C5.46875 24.4953 2.8 21.9028 2.8 18.7153C2.8 15.5278 5.46875 12.9353 8.75 12.9353C12.0312 12.9353 14.7 15.5278 14.7 18.7153C14.7 21.9028 12.0312 24.4953 8.75 24.4953ZM17.5 18.7153C17.497 16.7543 16.7973 14.8545 15.519 13.3367C14.2408 11.819 12.4623 10.7765 10.4843 10.3853C12.5913 9.6968 14.9275 9.35 17.5 9.35C20.0725 9.35 22.4088 9.6968 24.5157 10.387C22.5383 10.7781 20.7603 11.8201 19.4821 13.3371C18.2039 14.8541 17.5038 16.7532 17.5 18.7136V18.7153ZM26.25 24.4953C22.9688 24.4953 20.3 21.9028 20.3 18.7153C20.3 15.5278 22.9688 12.9353 26.25 12.9353C29.5312 12.9353 32.2 15.5278 32.2 18.7153C32.2 21.9028 29.5312 24.4953 26.25 24.4953ZM8.75 15.062C6.67625 15.062 4.9875 16.7008 4.9875 18.717C4.9875 20.7332 6.67625 22.372 8.75 22.372C10.8237 22.372 12.5125 20.7332 12.5125 18.717C12.5125 16.7008 10.8237 15.062 8.75 15.062ZM8.75 19.8067C8.44832 19.8067 8.15899 19.6903 7.94567 19.4831C7.73234 19.2758 7.6125 18.9948 7.6125 18.7017C7.6125 18.4086 7.73234 18.1276 7.94567 17.9204C8.15899 17.7131 8.44832 17.5967 8.75 17.5967C9.05168 17.5967 9.34101 17.7131 9.55433 17.9204C9.76766 18.1276 9.8875 18.4086 9.8875 18.7017C9.8875 18.9948 9.76766 19.2758 9.55433 19.4831C9.34101 19.6903 9.05168 19.8067 8.75 19.8067ZM26.25 15.062C24.1763 15.062 22.4875 16.7008 22.4875 18.717C22.4875 20.7332 24.1763 22.372 26.25 22.372C28.3237 22.372 30.0125 20.7332 30.0125 18.717C30.0125 16.7008 28.3237 15.062 26.25 15.062ZM26.25 19.8067C25.9483 19.8067 25.659 19.6903 25.4457 19.4831C25.2323 19.2758 25.1125 18.9948 25.1125 18.7017C25.1125 18.4086 25.2323 18.1276 25.4457 17.9204C25.659 17.7131 25.9483 17.5967 26.25 17.5967C26.5517 17.5967 26.841 17.7131 27.0543 17.9204C27.2677 18.1276 27.3875 18.4086 27.3875 18.7017C27.3875 18.9948 27.2677 19.2758 27.0543 19.4831C26.841 19.6903 26.5517 19.8067 26.25 19.8067Z" fill="#110D10"/>
</g>
<defs>
<clipPath id="clip0">
<rect width="35" height="34" fill="white"/>
</clipPath>
</defs>
</svg>
