<svg width="34" height="20" viewBox="0 0 34 20" fill="none" xmlns="http://www.w3.org/2000/svg">
<path fill-rule="evenodd" clip-rule="evenodd" d="M16.602 19.618H18.642C18.642 19.618 19.254 19.516 19.56 19.21C19.866 18.904 19.866 18.292 19.866 18.292C19.866 18.292 19.866 15.64 21.09 15.232C22.314 14.824 23.946 17.884 25.578 19.006C26.802 19.924 27.72 19.72 27.72 19.72L32.208 19.618C32.208 19.618 34.554 19.516 33.432 17.578C33.33 17.476 32.82 16.252 30.066 13.702C27.21 11.05 27.618 11.56 30.984 6.97C33.024 4.216 33.84 2.584 33.636 1.768C33.432 1.054 31.902 1.258 31.902 1.258H26.802C26.802 1.258 26.394 1.156 26.19 1.36C25.884 1.564 25.782 1.87 25.782 1.87C25.782 1.87 24.966 4.012 23.946 5.848C21.702 9.622 20.784 9.826 20.478 9.622C19.662 9.112 19.866 7.378 19.866 6.256C19.866 2.584 20.478 1.054 18.744 0.646C18.234 0.544 17.826 0.442001 16.398 0.442001C14.562 0.442001 13.032 0.442001 12.216 0.850001C11.604 1.156 11.196 1.768 11.502 1.768C11.808 1.768 12.624 1.972 13.032 2.482C13.44 3.4 13.44 4.93 13.44 4.93C13.44 4.93 13.746 9.316 12.726 9.826C12.012 10.234 11.094 9.418 9.054 5.95C8.034 4.216 7.218 2.176 7.218 2.176C7.218 2.176 7.116 1.768 6.81 1.564C6.504 1.36 5.994 1.258 5.994 1.258H1.2C1.2 1.258 0.485999 1.258 0.179999 1.564C-0.0240007 1.87 0.179999 2.38 0.179999 2.38C0.179999 2.38 3.954 11.152 8.238 15.64C12.216 19.924 16.602 19.618 16.602 19.618Z" fill="#fff"/>
</svg>
